<?xml version="1.0" standalone="no"?>
<!DOCTYPE svg PUBLIC "-//W3C//DTD SVG 20010904//EN"
 "http://www.w3.org/TR/2001/REC-SVG-20010904/DTD/svg10.dtd">
<svg version="1.0" xmlns="http://www.w3.org/2000/svg"
 width="1280.000000pt" height="936.000000pt" viewBox="0 0 1280.000000 936.000000"
 preserveAspectRatio="xMidYMid meet">
<g transform="translate(0.000000,936.000000) scale(0.100000,-0.100000)"
fill="#dbe7ff" stroke="none">
<path d="M4410 9344 c-441 -35 -793 -101 -1149 -216 -884 -284 -1647 -809
-2227 -1532 -540 -672 -879 -1475 -988 -2336 -8 -63 -22 -220 -32 -348 -16
-221 -16 -243 0 -465 45 -603 136 -1011 334 -1512 461 -1163 1436 -2134 2606
-2594 482 -189 904 -282 1486 -327 494 -38 1151 49 1682 222 967 315 1781 914
2380 1753 53 74 106 152 117 172 l21 37 -1632 1020 c-898 561 -1789 1117
-1980 1236 -192 120 -348 221 -348 226 0 5 156 106 348 226 191 119 1082 675
1980 1236 l1632 1020 -21 37 c-35 63 -209 302 -311 427 -794 979 -1971 1603
-3208 1704 -74 6 -168 15 -208 20 -96 13 -278 11 -482 -6z"/>
<path d="M7652 5276 c-191 -47 -361 -204 -429 -398 -23 -63 -26 -89 -26 -198
0 -112 2 -133 27 -200 58 -154 164 -276 300 -344 95 -48 172 -66 281 -66 50 0
118 7 150 15 224 57 399 240 451 471 45 206 -32 439 -195 585 -63 57 -190 122
-269 138 -70 14 -224 13 -290 -3z"/>
<path d="M9825 5272 c-113 -34 -175 -72 -265 -162 -129 -129 -180 -251 -180
-430 0 -174 55 -308 179 -431 124 -124 256 -179 435 -179 173 0 305 56 431
184 134 135 180 259 173 456 -4 92 -10 128 -31 182 -68 175 -203 308 -377 369
-90 31 -278 37 -365 11z"/>
<path d="M12022 5275 c-161 -38 -316 -164 -391 -316 -93 -189 -93 -369 0 -559
76 -152 225 -272 394 -315 76 -19 224 -19 300 0 85 22 191 77 253 130 58 52
133 152 158 211 27 64 63 206 64 250 0 64 -37 201 -78 284 -53 109 -160 214
-273 268 -46 22 -108 45 -137 51 -70 15 -224 13 -290 -4z"/>
</g>
</svg>
